<?xml version="1.0" encoding="UTF-8" standalone="no"?>
<!-- Created with Inkscape (http://www.inkscape.org/) -->

<svg
   width="256"
   height="256"
   viewBox="0 0 67.733332 67.733333"
   version="1.1"
   id="svg1"
   inkscape:version="1.4.2 (ebf0e940d0, 2025-05-08)"
   sodipodi:docname="favicon.svg"
   xmlns:inkscape="http://www.inkscape.org/namespaces/inkscape"
   xmlns:sodipodi="http://sodipodi.sourceforge.net/DTD/sodipodi-0.dtd"
   xmlns:xlink="http://www.w3.org/1999/xlink"
   xmlns="http://www.w3.org/2000/svg"
   xmlns:svg="http://www.w3.org/2000/svg">
  <sodipodi:namedview
     id="namedview1"
     pagecolor="#000000"
     bordercolor="#999999"
     borderopacity="1"
     inkscape:showpageshadow="2"
     inkscape:pageopacity="0"
     inkscape:pagecheckerboard="0"
     inkscape:deskcolor="#d1d1d1"
     inkscape:document-units="mm"
     inkscape:zoom="1.693779"
     inkscape:cx="161.17805"
     inkscape:cy="118.37436"
     inkscape:window-width="2544"
     inkscape:window-height="1331"
     inkscape:window-x="35"
     inkscape:window-y="32"
     inkscape:window-maximized="0"
     inkscape:current-layer="layer1" />
  <defs
     id="defs1">
    <linearGradient
       id="linearGradient4"
       inkscape:collect="always">
      <stop
         style="stop-color:#cc56d0;stop-opacity:1;"
         offset="0"
         id="stop4" />
      <stop
         style="stop-color:#6e06ff;stop-opacity:1;"
         offset="1"
         id="stop5" />
    </linearGradient>
    <linearGradient
       inkscape:collect="always"
       xlink:href="#linearGradient4"
       id="linearGradient5"
       x1="18.62522"
       y1="30.241716"
       x2="42.590687"
       y2="30.241716"
       gradientUnits="userSpaceOnUse"
       gradientTransform="matrix(1.7399691,0,0,1.7399691,-19.390224,-18.752995)" />
  </defs>
  <g
     inkscape:label="Layer 1"
     inkscape:groupmode="layer"
     id="layer1">
    <circle
       style="fill:#ffffff;stroke:#000000;stroke-width:0;stroke-linecap:round;stroke-linejoin:round"
       id="path1"
       cx="33.866665"
       cy="33.866665"
       r="33.866665" />
    <path
       style="font-variation-settings:'wght' 800;fill:#000000;fill-opacity:0.999603;stroke:url(#linearGradient5);stroke-width:1.26618;stroke-dasharray:none"
       d="m 51.766119,15.709776 c -0.34468,-0.01677 -0.699084,0.03482 -1.043917,0.163646 L 36.967845,21.012087 23.70982,15.90849 c -0.651354,-0.250727 -1.334031,-0.222498 -1.920594,0.02788 -1.272851,0.318204 -2.246985,2.286788 -2.246985,4.682793 v 20.873859 a 5.8726179,5.2829476 0 0 0 -0.652784,-0.03236 5.8726179,5.2829476 0 0 0 -5.872374,5.28253 5.8726179,5.2829476 0 0 0 5.872374,5.283428 5.8726179,5.2829476 0 0 0 4.442719,-1.842366 c 0.139439,-0.127644 0.271184,-0.276846 0.394729,-0.445981 a 5.8726179,5.2829476 0 0 0 1.034924,-2.995081 5.8726179,5.2829476 0 0 0 -0.01175,-0.330887 c 0.0077,-0.147882 0.01175,-0.29796 0.01175,-0.44958 V 21.885164 l 11.023629,4.24311 c 0.29583,0.149895 0.620334,0.240973 0.954902,0.269745 0.453631,0.04537 0.901892,-0.03322 1.301973,-0.215797 l 11.454323,-4.278174 v 15.177717 a 5.8726179,5.2829476 0 0 0 -0.652786,-0.03237 5.8726179,5.2829476 0 0 0 -5.872375,5.282529 5.8726179,5.2829476 0 0 0 5.872375,5.283427 5.8726179,5.2829476 0 0 0 5.872374,-5.283427 5.8726179,5.2829476 0 0 0 -0.0082,-0.28683 c 0.0058,-0.110974 0.0082,-0.222925 0.0082,-0.336286 v -21.87821 c 0,-2.261125 -1.16343,-4.08126 -2.609344,-4.08126 -0.112112,-0.0205 -0.225887,-0.03397 -0.340781,-0.03957 z"
       id="rect1" />
  </g>
</svg>
