<?xml version="1.0" encoding="UTF-8" standalone="no"?>
<!-- Created with Inkscape (http://www.inkscape.org/) -->

<svg
   width="918.59174"
   height="245.01897"
   viewBox="0 0 243.04406 64.827935"
   version="1.1"
   id="svg1"
   inkscape:version="1.4.2 (ebf0e940d0, 2025-05-08)"
   sodipodi:docname="logoLong.svg"
   xmlns:inkscape="http://www.inkscape.org/namespaces/inkscape"
   xmlns:sodipodi="http://sodipodi.sourceforge.net/DTD/sodipodi-0.dtd"
   xmlns:xlink="http://www.w3.org/1999/xlink"
   xmlns="http://www.w3.org/2000/svg"
   xmlns:svg="http://www.w3.org/2000/svg">
  <sodipodi:namedview
     id="namedview1"
     pagecolor="#ffffff"
     bordercolor="#999999"
     borderopacity="1"
     inkscape:showpageshadow="2"
     inkscape:pageopacity="0"
     inkscape:pagecheckerboard="0"
     inkscape:deskcolor="#d1d1d1"
     inkscape:document-units="mm"
     inkscape:zoom="1.28"
     inkscape:cx="545.3125"
     inkscape:cy="185.54688"
     inkscape:window-width="2544"
     inkscape:window-height="1355"
     inkscape:window-x="35"
     inkscape:window-y="32"
     inkscape:window-maximized="0"
     inkscape:current-layer="layer1">
    <inkscape:page
       x="0"
       y="0"
       width="243.04407"
       height="64.827934"
       id="page2"
       margin="0"
       bleed="0" />
  </sodipodi:namedview>
  <defs
     id="defs1">
    <linearGradient
       id="linearGradient13"
       inkscape:collect="always">
      <stop
         style="stop-color:#cc56d0;stop-opacity:1;"
         offset="0"
         id="stop13" />
      <stop
         style="stop-color:#6e06ff;stop-opacity:1;"
         offset="1"
         id="stop14" />
    </linearGradient>
    <linearGradient
       inkscape:collect="always"
       xlink:href="#linearGradient13"
       id="linearGradient14"
       x1="4.3738585"
       y1="27.252979"
       x2="247.41791"
       y2="27.252979"
       gradientUnits="userSpaceOnUse" />
    <linearGradient
       inkscape:collect="always"
       xlink:href="#linearGradient13"
       id="linearGradient15"
       gradientUnits="userSpaceOnUse"
       x1="4.3738585"
       y1="27.252979"
       x2="247.41791"
       y2="27.252979" />
    <linearGradient
       inkscape:collect="always"
       xlink:href="#linearGradient13"
       id="linearGradient16"
       gradientUnits="userSpaceOnUse"
       x1="4.3738585"
       y1="27.252979"
       x2="247.41791"
       y2="27.252979" />
  </defs>
  <g
     inkscape:label="Layer 1"
     inkscape:groupmode="layer"
     id="layer1"
     transform="translate(-4.3738576,4.9542823)">
    <g
       id="g11"
       style="fill:none;fill-opacity:0.999801;stroke:url(#linearGradient14);stroke-opacity:1"
       transform="translate(0,0.20670573)"
       inkscape:export-filename="logoLong.svg"
       inkscape:export-xdpi="96"
       inkscape:export-ydpi="96">
      <path
         style="font-variation-settings:'wght' 800;fill:none;fill-opacity:0.999801;stroke:url(#linearGradient15);stroke-width:1.73805;stroke-dasharray:none;stroke-opacity:1"
         d="M 58.440302,8.9396043 C 57.9671,8.9165719 57.480551,8.9874152 57.007139,9.1642689 L 38.124184,16.218991 19.922629,9.2124118 c -0.894227,-0.3442168 -1.831452,-0.3054594 -2.636727,0.038268 -1.74746,0.4368527 -3.08482,3.1394632 -3.08482,6.4288692 v 28.657109 a 8.0623453,7.2528042 0 0 0 -0.896188,-0.04443 8.0623453,7.2528042 0 0 0 -8.0620117,7.252231 8.0623453,7.2528042 0 0 0 8.0620117,7.253464 8.0623453,7.2528042 0 0 0 6.099278,-2.529331 c 0.191434,-0.175238 0.372301,-0.380075 0.541913,-0.612273 a 8.0623453,7.2528042 0 0 0 1.420817,-4.11186 8.0623453,7.2528042 0 0 0 -0.01605,-0.454266 c 0.01048,-0.203021 0.01605,-0.40906 0.01605,-0.617213 V 17.417614 l 15.134017,5.825239 c 0.406135,0.205788 0.851638,0.330826 1.310957,0.370326 0.622776,0.06228 1.238181,-0.04562 1.787441,-0.29626 l 15.725304,-5.873382 v 20.837046 a 8.0623453,7.2528042 0 0 0 -0.89619,-0.04443 8.0623453,7.2528042 0 0 0 -8.062012,7.252229 8.0623453,7.2528042 0 0 0 8.062012,7.253464 8.0623453,7.2528042 0 0 0 8.062011,-7.253464 8.0623453,7.2528042 0 0 0 -0.01123,-0.393781 c 0.0079,-0.152355 0.01123,-0.306047 0.01123,-0.461675 V 14.596961 c 0,-3.104232 -1.597239,-5.6030412 -3.582293,-5.6030412 -0.153908,-0.028151 -0.310113,-0.046638 -0.467847,-0.054316 z"
         id="rect1" />
      <path
         d="m 95.426901,53.66118 q -0.924293,-0.924293 -1.848586,-2.495591 -0.924293,-1.663727 -1.478869,-3.789601 -0.184859,-0.739434 -0.184859,-2.033445 0.09243,-1.29401 0,-1.848586 -0.277288,0.647005 -0.924293,1.38644 -0.554575,0.647005 -1.109151,1.109151 -0.369717,0.369718 -1.663728,1.478869 -1.29401,1.016723 -2.58802,1.663728 -3.050167,1.941015 -5.083611,2.125873 -1.941016,0.184859 -3.697172,-2.033444 -1.478869,-1.201581 -2.125874,-2.68045 -0.554576,-1.478869 0,-4.066889 0.184858,-3.235025 0.924293,-6.285192 0.739434,-3.142596 3.050167,-8.318637 1.941015,-3.789601 2.957737,-5.545758 1.016723,-1.848586 1.29401,-2.218303 1.38644,-0.462147 2.310733,0.09243 0.924293,0.462147 1.109151,1.756157 0.554576,0.924293 -0.184858,3.142596 -0.647005,2.218303 -2.310733,5.453329 -1.29401,3.142596 -2.403161,6.285192 -1.016723,3.142596 -1.201581,5.360899 -0.184859,2.218303 1.109151,2.68045 0.831864,0.462146 2.865309,-0.277288 2.125873,-0.739434 4.713894,-3.697172 2.680449,-2.957738 5.176041,-8.965642 0.739434,-1.848586 1.109151,-3.235025 0.369717,-1.478869 0.462147,-3.235026 -0.184859,-1.109151 0.09243,-1.941015 0.369717,-0.924293 1.478869,-1.571298 0.369717,-0.462147 1.016722,-0.831864 0.647005,-0.462146 0.831864,0 l 1.478867,-0.09243 q 0.36972,-0.09243 0.46215,0.462146 0.18486,0.462147 0.647,0.831864 1.01673,0.831864 0.55458,3.604743 -0.46215,2.772879 -2.588022,7.764061 -1.756156,3.789601 -2.403161,5.730616 -0.554576,1.941016 -0.647005,3.789602 0,1.663727 0.647005,3.142596 0.647005,1.478868 2.033444,2.680449 1.016719,0.647005 1.109149,1.478869 0.18486,0.831864 0.0924,1.941015 -0.18486,0.831864 -1.109149,1.38644 -0.831864,0.462146 -1.941016,0.462146 -1.109151,0 -2.033444,-0.647005 z m 17.746499,0.554576 q -1.75615,-0.739434 -3.32745,-1.941015 -1.5713,-1.29401 -2.03345,-2.125874 0,-0.831864 0.27729,-1.109152 0.27729,-0.369717 1.5713,-0.277288 1.38644,0 4.43661,0.369718 1.10915,0 2.77287,-0.184859 1.66373,-0.184859 3.05017,-0.554576 1.47887,-0.369717 1.66373,-0.924293 0.46215,0 0.18486,-0.277288 -0.27729,-0.369717 -0.64701,-0.739434 -0.36971,0 -0.83186,-0.277288 -0.46215,-0.369717 -0.83186,-0.369717 0,-0.462147 -0.9243,-1.016722 -0.83186,-0.647006 -1.75615,-1.016723 -2.03345,-1.663727 -3.51232,-2.957737 -1.47887,-1.38644 -1.10915,-1.848586 0,-0.369717 0,-0.369717 0,-0.09243 0,-0.09243 -0.647,0 -1.47887,-1.848586 -0.73943,-1.848586 -0.73943,-3.327454 0,-1.109152 0.647,-2.772879 0.64701,-1.756157 1.75616,-3.604743 1.10915,-1.848586 2.31073,-3.050167 1.66373,-1.571298 4.15932,-3.327455 2.49559,-1.848586 4.89875,-3.235025 2.49559,-1.478869 4.15932,-1.941015 1.66373,-0.647005 3.05017,-0.647005 1.47887,0 2.58802,0.647005 0.92429,0.462146 1.66373,1.386439 0.83186,0.831864 1.38644,1.756157 0.647,0.831864 0.83186,1.478869 0,1.109151 -0.18486,2.495591 -0.18486,1.29401 -0.55458,2.310732 -0.27728,1.016722 -0.92429,1.016722 0,0 -0.27729,0.09243 -0.18485,0 -0.18485,0.462146 0,0.924293 -1.38644,2.125874 -1.75616,1.201581 -3.05017,1.478869 -1.29401,0.184858 -1.5713,-1.016722 -0.27729,-0.369718 -0.36972,-0.647006 -0.0924,-0.277287 -0.46214,-0.277287 0,0 -0.27729,-0.277288 -0.27729,-0.277288 -0.27729,-0.924293 0,-0.369718 0.27729,-0.647005 0.27729,-0.369718 0.27729,-0.369718 0.46214,0 1.20158,-1.016722 0.73943,-1.109151 1.29401,-2.310732 0.647,-1.294011 0.647,-1.756157 0,-0.554576 -0.18486,-0.647005 -0.0924,-0.09243 -0.83186,-0.09243 -1.29401,0.554575 -3.1426,1.478868 -1.84858,0.924293 -3.51231,1.848586 -1.5713,0.831864 -2.31073,1.571298 -0.36972,0.647006 -0.46215,0.831864 -0.0924,0.09243 -0.46214,0.09243 0,-0.369717 -0.64701,0.369718 -0.55457,0.647005 -1.47887,1.848586 -0.83186,1.20158 -1.66373,2.403161 -0.73943,1.109152 -1.10915,1.663728 -0.18486,0.184858 -0.46214,1.109151 -0.18486,0.831864 -0.18486,1.571298 -0.36972,1.109152 0.0924,1.571298 0.46214,0.369718 2.03344,1.663728 3.23503,2.403162 5.08361,3.97446 1.84859,1.571298 2.77288,2.58802 0.9243,1.016722 1.10915,1.848586 1.66373,2.772879 1.01673,4.251748 -0.64701,1.478868 -3.1426,2.58802 -0.92429,0.462147 -3.05017,0.739434 -2.12587,0.277288 -4.34417,0.277288 -2.21831,0.09243 -3.51232,-0.09243 z m 34.75338,-0.09243 q -4.06689,0 -6.65491,-3.050167 -2.58802,-3.142596 -2.49559,-7.764061 0.18486,-3.327455 1.29401,-7.117056 1.20158,-3.882031 3.1426,-7.394344 1.94101,-3.604743 4.25174,-6.285192 2.31074,-2.68045 4.80633,-3.789602 0.92429,-0.462146 1.94101,-0.739434 1.10915,-0.277288 2.21831,-0.277288 1.01672,0 2.12587,0.369717 1.10915,0.277288 1.84859,0.647005 1.57129,0.647006 2.40316,1.571298 0.83186,0.924293 1.47887,2.865309 0.27728,1.756156 0.27728,2.495591 0,0.739434 -0.46214,2.218303 -1.10915,3.327455 -2.86531,5.730616 -1.75616,2.403162 -4.71389,4.06689 -0.73944,0.462146 -1.75616,0.739434 -0.92429,0.184859 -1.94102,0.184859 -1.84858,0 -3.60474,-0.647006 -1.66373,-0.739434 -2.68045,-2.125873 l -0.647,-0.739435 -0.27729,0.739435 q -0.92429,2.495591 -1.47887,4.621465 -0.46215,2.125873 -0.46215,3.88203 0,1.109152 0.18486,2.125874 0.27729,1.016722 0.73944,1.756157 0.36971,0.554575 1.20158,0.831863 0.92429,0.184859 1.94101,0.184859 0.64701,0 1.29401,0 0.73944,-0.09243 1.38644,-0.369717 1.5713,-0.554576 2.49559,-1.201581 1.01673,-0.647005 2.03345,-1.38644 l 0.36971,-0.184858 h -0.0924 q 1.10915,-0.554576 1.94101,-1.109152 0.92429,-0.554576 0.92429,-0.554576 0.36972,0 0.73944,-0.462146 0.73943,-0.369717 1.84858,0.277288 1.20158,0.647005 1.20158,1.663727 -0.0924,0.462147 -0.83186,1.478869 -0.73943,0.924293 -1.66373,1.756157 -0.83186,0.831863 -1.38644,0.924293 -0.0924,0.09243 -0.647,0.369717 -0.55458,0.184858 -0.73944,0.369717 h 0.0924 q -0.83186,1.109152 -1.66372,1.109152 h -0.73944 q -0.36971,0.647005 -2.40316,1.478868 -2.03344,0.739435 -3.97446,0.739435 z m 4.15932,-20.334446 q 1.66373,0 2.86531,-0.924293 1.29401,-1.016722 2.2183,-2.218303 1.84859,-2.495591 2.12587,-4.806324 0.36972,-2.403161 -0.55457,-3.327454 -0.55458,-0.277288 -1.01672,-0.277288 -0.36972,-0.09243 -1.5713,0.277288 -0.83187,0.184858 -2.31073,1.386439 -1.47887,1.201581 -2.95774,2.68045 -1.38644,1.478869 -2.12588,2.495591 l -1.20158,1.941015 q 0.73944,-0.277288 1.38644,-0.277288 0.73944,-0.09243 0.83187,0.09243 0,0.831863 0.27728,1.571298 0.36972,0.647005 0.83187,1.016722 0.55457,0.369717 1.20158,0.369717 z m 40.66897,19.132865 q -0.36972,0 -1.10916,-0.09243 -0.647,-0.184859 -1.10915,-0.831864 -1.38644,-1.663728 -1.75615,-2.772879 -0.36972,-1.109152 -0.0924,-3.235026 0.18485,-1.386439 0.18485,-2.403161 0.0924,-1.109152 0.18486,-1.848586 -0.36971,-0.369717 -1.38644,0.554576 -0.92429,0.831863 -2.58802,2.125873 -3.14259,3.604743 -5.63818,5.545758 -2.40317,1.848586 -4.34418,2.495591 -1.94102,0.554576 -3.69717,0.369718 -1.5713,-0.184859 -2.49559,-1.294011 -0.9243,-1.201581 -1.20158,-3.050166 -0.18486,-1.848586 0,-3.97446 0.36971,-3.050167 1.29401,-5.823046 1.01672,-2.772879 3.23502,-6.192763 1.01672,-1.848586 2.68045,-3.604743 1.75616,-1.848586 3.7896,-3.235025 2.12588,-1.478869 4.06689,-2.125874 2.12587,-0.831864 4.34418,-0.924293 2.2183,-0.184859 3.97446,0.369717 1.10915,0.554576 1.75615,0.554576 0.73944,0 1.10916,-0.924293 0.46214,-0.739434 0.92429,-2.218303 0.46215,-1.571298 1.10915,-2.68045 l 2.03345,-6.007904 q 1.01672,-2.4955913 2.2183,-5.2684703 1.20158,-2.7728789 2.86531,-6.74733874 1.57129,-2.95773756 2.58802,-3.41988406 1.01672,-0.5545758 2.31073,0.7394344 1.01672,1.2015809 0.73943,2.77287895 -0.27728,1.47886875 -1.66372,4.80632355 -0.64701,1.0167223 -1.10916,1.9410152 -0.46214,0.8318637 -1.29401,2.6804497 -1.20158,2.8653083 -2.2183,5.1760403 -1.01672,2.218304 -2.12587,5.083612 -0.36972,1.478869 -1.01672,3.419884 -0.55458,1.941015 -0.9243,3.512313 -0.27729,1.478869 -0.647,2.772879 -0.27729,1.201581 -0.64701,1.201581 -0.73943,0.831864 -1.38644,2.957738 -0.647,2.033444 -1.10915,4.251747 -0.36972,2.218303 -0.647,3.697172 -0.18486,1.109152 -0.27729,2.865308 -0.0924,1.756157 -0.0924,3.419885 0,1.571298 0,2.218303 0,2.033444 -0.0924,2.58802 -0.0924,0.554576 -0.73943,0.554576 z M 173.06762,47.0987 q 1.94102,0 4.06689,-1.663727 2.21831,-1.663728 4.43661,-3.697172 1.38644,-1.29401 2.95774,-3.419884 1.66373,-2.125874 3.14259,-4.251748 1.5713,-2.125874 2.49559,-3.697172 0.9243,-1.663727 0.9243,-2.033445 0,-0.462146 -0.83187,-0.647005 -0.83186,-0.184858 -1.94101,-0.184858 -1.01672,-0.09243 -1.66373,0.09243 -2.03344,0.462147 -4.06689,1.848586 -1.94101,1.38644 -4.25175,4.159318 -2.40316,2.957738 -3.97446,6.100334 -1.47886,3.142596 -1.84858,5.26847 -0.36972,2.125874 0.55457,2.125874 z m 32.44265,7.579203 q -1.20158,-0.462147 -1.75616,-1.38644 -0.55457,-1.016722 -0.647,-2.865308 0,-1.109152 0.36972,-2.957738 0.36971,-1.848586 0.83186,-4.251747 0,-0.184859 0,-0.369718 0.0924,-0.277288 0.0924,-0.369717 0.0924,-0.369717 0.18486,-1.109151 0.18486,-0.739435 0.27729,-1.109152 0.0924,-0.462147 0.0924,0 l 0.64701,-2.495591 q 0.46215,-1.663727 0.92429,-3.327455 0.46215,-1.663727 0.83187,-2.865308 0.36971,-1.29401 0.46214,-1.478869 0,0 0.36972,-1.016722 0.36972,-1.109152 0.73943,-2.125874 1.5713,-4.344177 2.86531,-7.301915 1.29401,-3.050166 2.31074,-4.436606 0.0924,-0.277288 0.27728,-0.647005 0.18486,-0.462146 0.27729,-0.739434 0.0924,-0.739435 0.18486,-1.109152 0.18486,-0.462146 0.46215,-0.831864 0.18485,-0.369717 0.55457,-0.924293 0.36972,-0.647005 0.83187,-1.5712977 l 0.36971,-1.0167223 q 0.55458,-1.2015809 1.38644,-2.6804496 0.83187,-1.4788688 1.20158,-2.1258739 0.36972,-0.8318637 1.10915,-1.9410153 0.73944,-1.20158086 1.10916,-1.57129805 l -0.0924,-0.0924293 q 0.46214,-0.83186368 1.10915,-0.92429298 0.73943,-0.18485857 1.5713,-0.18485857 1.29401,0 1.47887,0.36971716 0.18485,0.3697172 0.18485,1.66372737 0,1.38643947 -0.0924,2.03344457 0,0.5545758 -0.73943,1.2940102 h 0.0924 q 0.18486,-0.1848586 -0.0924,0.4621465 -0.27729,0.5545758 -0.46215,0.8318637 -0.18485,0.4621464 -0.46214,1.0167222 -0.18486,0.5545758 -0.46215,0.8318637 -0.27729,0.3697172 -1.38644,2.4955911 -1.01672,2.0334442 -2.40316,4.8063232 -1.29401,2.772879 -2.49559,5.3609 -1.20158,2.58802 -1.75616,3.974459 l -0.46214,1.38644 q -0.18486,0.369717 -0.18486,0.554576 -0.27729,0.647005 -0.55458,1.29401 -0.27729,0.647005 -0.55457,1.109151 l -1.5713,5.3609 -0.46215,1.941015 -0.83186,2.033445 -0.55458,1.756156 q -0.18486,0.554576 -0.27729,1.016723 -0.0924,0.462146 -0.36971,0.739434 0,0.09243 -0.0924,0.277288 0,0.09243 0,0.184858 -0.36972,1.478869 -0.83187,4.159319 -0.46214,2.68045 -0.647,5.638187 0,0.09243 -0.0924,0.184859 0,0.09243 0,0.184858 -0.27729,1.941016 -0.92429,2.588021 -0.64701,0.647005 -1.94102,0.277288 z m 21.99823,-3.050167 q -3.60474,-1.478869 -4.7139,-4.066889 -1.01672,-2.68045 -0.36971,-8.226208 0.18485,-2.865308 0.18485,-3.789601 0,-0.924293 -1.01672,-1.848586 -0.27729,-0.369717 -1.01672,-1.016723 -0.647,-0.647005 -0.55458,-1.109151 -0.0924,-0.647005 0.0924,-1.38644 0.18486,-0.831863 0.55458,-0.831863 0.36972,0 0.73943,-0.184859 0.46215,-0.184858 0.83187,0 0.36971,0 0.83186,0.09243 0.46215,0.09243 0.46215,0.462147 0.36972,0.647005 1.20158,0.184859 0.83186,-0.554576 1.75616,-2.403162 0.92429,-1.478869 2.40316,-2.957738 1.5713,-1.478869 3.05016,-2.680449 1.5713,-1.294011 2.58802,-1.848586 0.46215,-0.184859 1.38644,-0.462147 0.9243,-0.277288 1.94102,-0.462146 1.10915,-0.184859 1.84859,-0.09243 1.66372,0.09243 2.77287,0.924293 1.20158,0.831864 2.21831,1.941016 1.20158,0.831863 1.47887,2.218303 0.36971,1.386439 0.18485,2.957737 -0.18485,1.571298 -0.83186,2.865309 -0.27729,0.924293 -1.5713,2.218303 -1.29401,1.29401 -2.95773,2.495591 -1.66373,1.201581 -3.05017,1.756156 -1.20158,0.277288 -3.1426,0.462147 -1.84858,0.184859 -3.51231,0.184859 -1.5713,-0.09243 -2.12587,-0.369718 -0.64701,-0.369717 -1.01673,1.016723 -0.36971,1.386439 -0.55457,3.974459 -0.18486,2.033445 0,2.957738 0.18486,0.924293 0.36971,1.29401 0.64701,0.647005 1.75616,1.663728 1.20158,0.924293 3.32746,0.277287 1.75615,-0.462146 3.41988,-2.403161 1.75616,-1.941016 3.23503,-3.142596 0.36971,-0.647006 1.20158,-0.739435 0.92429,-0.184858 1.94101,0.09243 1.01672,0.647006 0.83186,1.571299 -0.0924,0.831863 -0.92429,2.58802 -0.27729,0.647005 -1.29401,1.663727 -0.92429,0.924293 -2.12587,1.941015 -1.10915,0.924293 -2.03345,1.478869 -2.77288,1.478869 -5.17604,1.571298 -2.40316,0 -4.62146,-0.831863 z m 5.45333,-18.763148 q 2.03344,-0.462146 3.23502,-0.647005 1.20158,-0.184859 2.31073,-1.016722 1.10916,-0.924293 2.77288,-3.419884 0.36972,-1.016723 0.18486,-2.033445 -0.0924,-1.016722 -0.46214,-1.386439 -0.83187,-0.924293 -2.03345,-0.554576 -1.10915,0.277288 -2.12587,1.016722 -0.64701,0.277288 -1.94102,1.38644 -1.20158,1.016722 -2.40316,2.403161 -1.20158,1.294011 -1.94102,2.403162 -0.73943,1.109152 -0.36971,1.29401 -0.18486,0.369717 1.01672,0.462147 1.29401,0.09243 1.75616,0.09243 z"
         id="text1"
         style="font-size:92.4293px;font-family:Caveat;-inkscape-font-specification:'Caveat, Normal';stroke:url(#linearGradient16);stroke-width:1.73805;stroke-linecap:round;stroke-linejoin:round"
         aria-label="usedle" />
    </g>
  </g>
</svg>
